<?xml version="1.0" encoding="utf-8"?>
<!-- Generator: Adobe Illustrator 22.1.0, SVG Export Plug-In . SVG Version: 6.00 Build 0)  -->
<svg version="1.1" id="Layer_1" xmlns="http://www.w3.org/2000/svg" xmlns:xlink="http://www.w3.org/1999/xlink" x="0px" y="0px"
	 viewBox="0 0 84.5 83.5" style="enable-background:new 0 0 84.5 83.5;" xml:space="preserve">
<style type="text/css">
	.st0{fill:#F93212;}
	.st1{fill:#FA5C43;}
	.st2{fill:#353740;}
	.st3{fill:#FFA42D;}
	.st4{fill:#FFBB62;}
	.st5{fill:#FFEA25;}
	.st6{fill:#FFF491;}
	.st7{fill:#95D93D;}
	.st8{fill:#B2E372;}
	.st9{fill:#1BCC33;}
	.st10{fill:#52D864;}
</style>
<g>
	<g>
		<g>
			
				<ellipse transform="matrix(0.7071 -0.7071 0.7071 0.7071 -17.0213 41.383)" class="st0" cx="41.4" cy="41.2" rx="36.9" ry="36.9"/>
			<g>
				<path class="st1" d="M20.5,21.2c-0.7,0-1.3-0.3-1.8-0.8c-0.9-1-0.9-2.6,0.1-3.5C25,11.2,33,8,41.4,8c1.4,0,2.5,1.1,2.5,2.5
					c0,1.4-1.1,2.5-2.5,2.5c-7.2,0-14,2.7-19.2,7.6C21.7,21,21.1,21.2,20.5,21.2z"/>
				<path class="st1" d="M10.9,40.3c-0.1,0-0.2,0-0.3,0c-1.4-0.1-2.3-1.4-2.2-2.7c0.4-4.1,1.6-8,3.5-11.6c0.6-1.2,2.1-1.7,3.3-1.1
					c1.2,0.6,1.7,2.1,1.1,3.3c-1.6,3.1-2.6,6.4-3,9.9C13.2,39.4,12.2,40.3,10.9,40.3z"/>
			</g>
			<g>
				<path class="st2" d="M41.4,45.9c-6.6,0-12.3,4.1-14.7,9.8c-1.2,2.9,1,6.1,4.2,6.1H52c3.2,0,5.4-3.2,4.2-6.1
					C53.8,50,48.1,45.9,41.4,45.9z"/>
				<path class="st2" d="M31.3,32.5c0,3-2.4,5.4-5.4,5.4c-3,0-5.4-2.4-5.4-5.4c0-3,2.4-5.4,5.4-5.4C28.9,27.1,31.3,29.5,31.3,32.5z"
					/>
				<circle class="st2" cx="57" cy="32.5" r="5.4"/>
			</g>
		</g>
	</g>
</g>
</svg>
