<?xml version="1.0" encoding="utf-8"?>
<!-- Generator: Adobe Illustrator 22.1.0, SVG Export Plug-In . SVG Version: 6.00 Build 0)  -->
<svg version="1.1" id="Layer_1" xmlns="http://www.w3.org/2000/svg" xmlns:xlink="http://www.w3.org/1999/xlink" x="0px" y="0px"
	 viewBox="0 0 84.5 83.5" style="enable-background:new 0 0 84.5 83.5;" xml:space="preserve">
<style type="text/css">
	.st0{fill:#F93212;}
	.st1{fill:#FA5C43;}
	.st2{fill:#353740;}
	.st3{fill:#FFA42D;}
	.st4{fill:#FFBB62;}
	.st5{fill:#FFEA25;}
	.st6{fill:#FFF491;}
	.st7{fill:#95D93D;}
	.st8{fill:#B2E372;}
	.st9{fill:#1BCC33;}
	.st10{fill:#52D864;}
</style>
<g>
	<g>
		<g>
			<g>
				<g>
					
						<ellipse transform="matrix(0.2262 -0.9741 0.9741 0.2262 -7.9907 73.4619)" class="st3" cx="42.2" cy="41.8" rx="36.9" ry="36.9"/>
					<g>
						<circle class="st2" cx="26.7" cy="33" r="5.4"/>
						<circle class="st2" cx="57.8" cy="33" r="5.4"/>
					</g>
				</g>
				<path class="st2" d="M27.4,62.4c1,0,1.9-0.6,2.3-1.6c2-4.9,6.8-8.4,12.5-8.4c5.7,0,10.5,3.5,12.5,8.4c0.4,0.9,1.3,1.6,2.3,1.6
					c1.8,0,3-1.8,2.3-3.4c-2.7-6.8-9.4-11.6-17.1-11.6c-7.7,0-14.4,4.8-17.1,11.6C24.5,60.6,25.7,62.4,27.4,62.4z"/>
			</g>
			<g>
				<path class="st4" d="M21.5,21.8c-0.7,0-1.3-0.3-1.8-0.8c-0.9-1-0.9-2.6,0.1-3.5C26,11.7,34,8.6,42.4,8.6c1.4,0,2.5,1.1,2.5,2.5
					c0,1.4-1.1,2.5-2.5,2.5c-7.2,0-14,2.7-19.2,7.6C22.7,21.5,22.1,21.8,21.5,21.8z"/>
				<path class="st4" d="M11.9,40.8c-0.1,0-0.2,0-0.3,0c-1.4-0.1-2.3-1.4-2.2-2.7c0.4-4.1,1.6-8,3.5-11.6c0.6-1.2,2.1-1.7,3.3-1.1
					c1.2,0.6,1.7,2.1,1.1,3.3c-1.6,3.1-2.6,6.4-3,9.9C14.2,39.9,13.1,40.8,11.9,40.8z"/>
			</g>
		</g>
	</g>
</g>
</svg>
