<?xml version="1.0" encoding="utf-8"?>
<!-- Generator: Adobe Illustrator 22.1.0, SVG Export Plug-In . SVG Version: 6.00 Build 0)  -->
<svg version="1.1" id="Layer_1" xmlns="http://www.w3.org/2000/svg" xmlns:xlink="http://www.w3.org/1999/xlink" x="0px" y="0px"
	 viewBox="0 0 84.5 83.5" style="enable-background:new 0 0 84.5 83.5;" xml:space="preserve">
<style type="text/css">
	.st0{fill:#F93212;}
	.st1{fill:#FA5C43;}
	.st2{fill:#353740;}
	.st3{fill:#FFA42D;}
	.st4{fill:#FFBB62;}
	.st5{fill:#FFEA25;}
	.st6{fill:#FFF491;}
	.st7{fill:#95D93D;}
	.st8{fill:#B2E372;}
	.st9{fill:#1BCC33;}
	.st10{fill:#52D864;}
</style>
<g>
	<g>
		<g>
			<g>
				
					<ellipse transform="matrix(0.2407 -0.9706 0.9706 0.2407 -8.4496 72.6986)" class="st9" cx="42.2" cy="41.7" rx="36.9" ry="36.9"/>
				<g>
					<path class="st2" d="M42.2,62.4c6.6,0,12.3-4.1,14.7-9.8c1.2-2.9-1-6.1-4.2-6.1H31.7c-3.2,0-5.4,3.2-4.2,6.1
						C29.9,58.4,35.6,62.4,42.2,62.4z"/>
					<circle class="st2" cx="26.7" cy="33" r="5.4"/>
					<path class="st2" d="M63.2,33c0,3-2.4,5.4-5.4,5.4c-3,0-5.4-2.4-5.4-5.4c0-3,2.4-5.4,5.4-5.4C60.7,27.6,63.2,30,63.2,33z"/>
				</g>
			</g>
			<g>
				<path class="st10" d="M21.6,21.8c-0.7,0-1.3-0.3-1.8-0.8c-0.9-1-0.9-2.6,0.1-3.5c6.2-5.7,14.2-8.9,22.6-8.9
					c1.4,0,2.5,1.1,2.5,2.5s-1.1,2.5-2.5,2.5c-7.2,0-14,2.7-19.2,7.6C22.8,21.6,22.2,21.8,21.6,21.8z"/>
				<path class="st10" d="M12,40.9c-0.1,0-0.2,0-0.3,0c-1.4-0.1-2.3-1.4-2.2-2.7c0.4-4.1,1.6-8,3.5-11.6c0.6-1.2,2.1-1.7,3.3-1.1
					c1.2,0.6,1.7,2.1,1.1,3.3c-1.6,3.1-2.6,6.4-3,9.9C14.3,40,13.3,40.9,12,40.9z"/>
			</g>
		</g>
	</g>
</g>
</svg>
