<?xml version="1.0" encoding="utf-8"?>
<!-- Generator: Adobe Illustrator 22.1.0, SVG Export Plug-In . SVG Version: 6.00 Build 0)  -->
<svg version="1.1" xmlns="http://www.w3.org/2000/svg" xmlns:xlink="http://www.w3.org/1999/xlink" x="0px" y="0px"
	 viewBox="0 0 86 58.5" style="enable-background:new 0 0 86 58.5;" xml:space="preserve">
<style type="text/css">
	.st0{fill:#F93212;}
	.st1{fill:#FA5C43;}
	.st2{fill:#353740;}
	.st3{fill:#FFA42D;}
	.st4{fill:#FFBB62;}
	.st5{fill:#FFEA25;}
	.st6{fill:#FFF491;}
	.st7{fill:#95D93D;}
	.st8{fill:#B2E372;}
	.st9{fill:#1BCC33;}
	.st10{fill:#52D864;}
	.st11{fill:#FFFFFF;}
</style>
<g id="Layer_1">
</g>
<g id="Layer_2">
	<path class="st11" d="M76.5,54.6h-67c-4.1,0-7.6-3.3-7.6-7.6V11c0-4.1,3.3-7.6,7.6-7.6h67c4.1,0,7.6,3.3,7.6,7.6V47
		C84.1,51.2,80.7,54.6,76.5,54.6z M9.5,8.2C8,8.2,6.7,9.4,6.7,11V47c0,1.5,1.2,2.7,2.7,2.7h67c1.5,0,2.7-1.2,2.7-2.7V11
		c0-1.5-1.2-2.7-2.7-2.7C76.5,8.2,9.5,8.2,9.5,8.2z"/>
	<g>
		<path class="st11" d="M17.2,18.2c-4.2,0-7.6,3.4-7.6,7.6v11c0,1.3,1.1,2.4,2.4,2.4s2.4-1.1,2.4-2.4V34H20v2.7
			c0,1.3,1.1,2.4,2.4,2.4c1.3,0,2.4-1.1,2.4-2.4v-11C24.8,21.6,21.4,18.2,17.2,18.2z M14.5,29.2v-3.4c0-1.5,1.2-2.7,2.7-2.7
			c1.5,0,2.7,1.2,2.7,2.7v3.4L14.5,29.2L14.5,29.2z"/>
		<path class="st11" d="M40.4,18.9c-1.3,0-2.4,1.1-2.4,2.4v11c0,1.5-1.2,2.7-2.8,2.7c-1.5,0-2.7-1.2-2.7-2.7v-11
			c0-1.3-1.1-2.4-2.4-2.4c-1.3,0-2.4,1.1-2.4,2.4v11c0,4.2,3.4,7.6,7.6,7.6c4.2,0,7.6-3.4,7.6-7.6v-11
			C42.8,19.9,41.8,18.9,40.4,18.9z"/>
		<path class="st11" d="M68.8,18.2L68.8,18.2c-4.2,0-7.6,3.4-7.6,7.6v6.4c0,4.2,3.4,7.6,7.6,7.6c4.1,0,7.6-3.3,7.6-7.6v-6.4
			C76.3,21.6,73,18.2,68.8,18.2z M71.5,32.2c0,1.5-1.2,2.7-2.8,2.7c-1.5,0-2.7-1.2-2.7-2.7v-6.4c0-1.5,1.2-2.7,2.7-2.7h0
			c1.5,0,2.7,1.2,2.7,2.7L71.5,32.2L71.5,32.2z"/>
		<path class="st11" d="M57.2,18.9H46.9c-1.3,0-2.4,1.1-2.4,2.4s1.1,2.4,2.4,2.4h2.7v13.1c0,1.3,1.1,2.4,2.4,2.4s2.4-1.1,2.4-2.4
			V23.7h2.7c1.3,0,2.4-1.1,2.4-2.4C59.6,19.9,58.5,18.9,57.2,18.9z"/>
	</g>
</g>
</svg>
