<?xml version="1.0" encoding="utf-8"?>
<!-- Generator: Adobe Illustrator 22.1.0, SVG Export Plug-In . SVG Version: 6.00 Build 0)  -->
<svg version="1.1" xmlns="http://www.w3.org/2000/svg" xmlns:xlink="http://www.w3.org/1999/xlink" x="0px" y="0px"
	 viewBox="0 0 86 58.5" style="enable-background:new 0 0 86 58.5;" xml:space="preserve">
<style type="text/css">
	.st0{fill:#F93212;}
	.st1{fill:#FA5C43;}
	.st2{fill:#353740;}
	.st3{fill:#FFA42D;}
	.st4{fill:#FFBB62;}
	.st5{fill:#FFEA25;}
	.st6{fill:#FFF491;}
	.st7{fill:#95D93D;}
	.st8{fill:#B2E372;}
	.st9{fill:#1BCC33;}
	.st10{fill:#52D864;}
	.st11{fill:#FFFFFF;}
</style>
<g id="Layer_1">
</g>
<g id="Layer_2">
	<g id="surface1">
		<path class="st11" d="M65.6,10.2V12c1,0,1.7,0.8,1.7,1.7v25.9H18.9V13.7c0-1,0.8-1.7,1.7-1.7v-1.7c-1.9,0-3.5,1.5-3.5,3.5v29.4
			c0,1.9,1.5,3.5,3.5,3.5h17l-2.1,6.9h-2v1.7h19v-1.7h-2l-2.1-6.9h17c1.9,0,3.5-1.5,3.5-3.5V13.7C69,11.8,67.5,10.2,65.6,10.2z
			 M48.8,53.5H37.3l2.1-6.9h7.4L48.8,53.5z M67.3,43.1c0,1-0.8,1.7-1.7,1.7h-45c-1,0-1.7-0.8-1.7-1.7v-1.7h48.4V43.1z"/>
		<path class="st11" d="M22.3,6.8v31.1h1.7V6.8c0-1,0.8-1.7,1.7-1.7h34.6c1,0,1.7,0.8,1.7,1.7v31.1h1.7V6.8c0-1.9-1.5-3.5-3.5-3.5
			H25.8C23.9,3.3,22.3,4.9,22.3,6.8z"/>
		<path class="st11" d="M25.8,6.8h1.7v1.7h-1.7V6.8z"/>
		<path class="st11" d="M29.3,6.8H31v1.7h-1.7V6.8z"/>
		<path class="st11" d="M32.7,6.8h1.7v1.7h-1.7V6.8z"/>
		<path class="st11" d="M25.8,10.2h34.6V12H25.8V10.2z"/>
		<path class="st11" d="M36.2,15.4c0-1-0.8-1.7-1.7-1.7h-6.9c-1,0-1.7,0.8-1.7,1.7v5.2c0,1,0.8,1.7,1.7,1.7h6.9c1,0,1.7-0.8,1.7-1.7
			V15.4z M27.5,20.6v-5.2h6.9v5.2H27.5z"/>
		<path class="st11" d="M48.3,15.4c0-1-0.8-1.7-1.7-1.7h-6.9c-1,0-1.7,0.8-1.7,1.7v5.2c0,1,0.8,1.7,1.7,1.7h6.9c1,0,1.7-0.8,1.7-1.7
			V15.4z M39.6,20.6v-5.2h6.9v5.2H39.6z"/>
		<path class="st11" d="M60.4,15.4c0-1-0.8-1.7-1.7-1.7h-6.9c-1,0-1.7,0.8-1.7,1.7v5.2c0,1,0.8,1.7,1.7,1.7h6.9c1,0,1.7-0.8,1.7-1.7
			V15.4z M51.7,20.6v-5.2h6.9v5.2H51.7z"/>
		<path class="st11" d="M36.2,25.8c0-1-0.8-1.7-1.7-1.7h-6.9c-1,0-1.7,0.8-1.7,1.7V31c0,1,0.8,1.7,1.7,1.7h6.9c1,0,1.7-0.8,1.7-1.7
			V25.8z M27.5,31v-5.2h6.9V31H27.5z"/>
		<path class="st11" d="M48.3,25.8c0-1-0.8-1.7-1.7-1.7h-6.9c-1,0-1.7,0.8-1.7,1.7V31c0,1,0.8,1.7,1.7,1.7h6.9c1,0,1.7-0.8,1.7-1.7
			V25.8z M39.6,31v-5.2h6.9V31H39.6z"/>
		<path class="st11" d="M60.4,25.8c0-1-0.8-1.7-1.7-1.7h-6.9c-1,0-1.7,0.8-1.7,1.7V31c0,1,0.8,1.7,1.7,1.7h6.9c1,0,1.7-0.8,1.7-1.7
			V25.8z M51.7,31v-5.2h6.9V31H51.7z"/>
		<path class="st11" d="M36.2,37.9v-1.7c0-1-0.8-1.7-1.7-1.7h-6.9c-1,0-1.7,0.8-1.7,1.7v1.7h1.7v-1.7h6.9v1.7H36.2z"/>
		<path class="st11" d="M48.3,37.9v-1.7c0-1-0.8-1.7-1.7-1.7h-6.9c-1,0-1.7,0.8-1.7,1.7v1.7h1.7v-1.7h6.9v1.7H48.3z"/>
		<path class="st11" d="M60.4,37.9v-1.7c0-1-0.8-1.7-1.7-1.7h-6.9c-1,0-1.7,0.8-1.7,1.7v1.7h1.7v-1.7h6.9v1.7H60.4z"/>
	</g>
</g>
</svg>
