<?xml version="1.0" encoding="utf-8"?>
<!-- Generator: Adobe Illustrator 22.1.0, SVG Export Plug-In . SVG Version: 6.00 Build 0)  -->
<svg version="1.1" xmlns="http://www.w3.org/2000/svg" xmlns:xlink="http://www.w3.org/1999/xlink" x="0px" y="0px"
	 viewBox="0 0 86 58.5" style="enable-background:new 0 0 86 58.5;" xml:space="preserve">
<style type="text/css">
	.st0{fill:#F93212;}
	.st1{fill:#FA5C43;}
	.st2{fill:#353740;}
	.st3{fill:#FFA42D;}
	.st4{fill:#FFBB62;}
	.st5{fill:#FFEA25;}
	.st6{fill:#FFF491;}
	.st7{fill:#95D93D;}
	.st8{fill:#B2E372;}
	.st9{fill:#1BCC33;}
	.st10{fill:#52D864;}
	.st11{fill:#FFFFFF;}
</style>
<g id="Layer_1">
</g>
<g id="Layer_2">
	<g>
		<path class="st11" d="M78.8,31.5V12.2c0-4.5-3.7-8.2-8.2-8.2H29.7c-0.7,0-1.2,0.5-1.2,1.2c0,0.7,0.5,1.2,1.2,1.2h40.9
			c3.2,0,5.8,2.6,5.8,5.8v19.3h-1c0.2-0.5,0.3-1.1,0.3-1.7c0-2-1.3-3.6-3.1-4.2c1.1-1.4,1.7-3,1.7-4.8c0-2.1-0.8-4-2.3-5.5
			c-3-3-7.9-3-11,0c-1.5,1.5-2.3,3.4-2.3,5.5c0,0.1,0,0.2,0,0.4c-1.1-0.3-2.3-0.4-3.5-0.3l-2.8,0.2c-0.2-1.1-1.3-1.9-2.4-1.8
			L44.7,20c-1,0.1-1.8,0.9-1.9,1.9l-2.2,0.2c-0.7,0.1-1.4,0.4-1.9,1l-6-4.9c-2.8-2.3-6.9-2-9.4,0.7l-6.9,7.7c0,0-0.1,0.1-0.1,0.1
			H9.6V12.1c0-3.2,2.6-5.8,5.8-5.8h8.9c0.7,0,1.2-0.5,1.2-1.2C25.5,4.5,25,4,24.3,4h-8.9c-4.5,0-8.2,3.7-8.2,8.2v15.3
			c-1.1,0.8-1.9,2.1-1.9,3.5c0,0.3,0,0.7,0.1,1c-1.8,0.8-3,2.6-3,4.6v2.1c0,2.8,2.3,5.1,5.1,5.1h0.7v2c0,2.1,1.7,3.8,3.8,3.8
			s3.8-1.7,3.8-3.8v-2h12.1c0.7,0,1.2-0.5,1.2-1.2c0-0.7-0.5-1.2-1.2-1.2H7.5c-1.5,0-2.7-1.2-2.7-2.7v-2.1c0-1.5,1.2-2.7,2.7-2.7
			h43.4l-2.7,7.5H33.4c-0.7,0-1.2,0.5-1.2,1.2c0,0.7,0.5,1.2,1.2,1.2h14l-0.6,1.6c-0.2,0.4-0.2,0.9-0.2,1.3
			c-0.2,0.2-0.4,0.5-0.6,0.8l-1.6,2.8c-0.5,0.8-0.5,1.8-0.1,2.6c0.4,0.8,1.2,1.4,2.2,1.5l1.9,0.2c0.1,0,0.2,0,0.3,0
			c1,0,1.9-0.5,2.4-1.4l1.2-2.1c0.4-0.6,0.5-1.3,0.5-2c0.3-0.4,0.6-0.8,0.8-1.3l1.5-4.1h4.8c0.7,0,1.2-0.5,1.2-1.2
			c0-0.7-0.5-1.2-1.2-1.2h-4l2.7-7.5h19.9c1.5,0,2.7,1.2,2.7,2.7v2.1c0,1.5-1.2,2.7-2.7,2.7H65.2c-0.7,0-1.2,0.5-1.2,1.2
			c0,0.7,0.5,1.2,1.2,1.2h5v2c0,2.1,1.7,3.8,3.8,3.8c2.1,0,3.8-1.7,3.8-3.8v-2h0.7c2.8,0,5.1-2.3,5.1-5.1v-2.1
			C83.6,33.8,81.4,31.6,78.8,31.5z M13.4,45.7c0,0.8-0.6,1.4-1.4,1.4c-0.8,0-1.4-0.6-1.4-1.4v-2h2.8V45.7z M73.4,29.8
			c0,0.6-0.3,1.2-0.8,1.6c0,0-0.1,0-0.1,0.1h-7.4c0,0-0.1-0.1-0.1-0.1c-0.5-0.4-0.8-1-0.8-1.6c0-0.5,0.2-1.1,0.6-1.4
			c0.6,0.1,1.2,0.2,1.8,0.2c1.2,0,2.4-0.3,3.5-0.8c0.1,0.1,0.3,0.1,0.5,0.1h0.9C72.5,27.8,73.4,28.7,73.4,29.8z M70.3,17
			c1,1,1.6,2.4,1.6,3.8c0,1-0.3,2-0.9,2.9c-4.4-3-5.4-6.4-5.6-8.2c0.3-0.1,0.7-0.1,1.1-0.1C67.9,15.4,69.3,16,70.3,17z M62.7,17
			c0.2-0.2,0.3-0.3,0.5-0.4c0.4,2.2,1.8,5.8,6.1,8.8c-2.1,1.3-4.8,1-6.6-0.8c-1-1-1.6-2.4-1.6-3.8C61.2,19.4,61.7,18,62.7,17z
			 M50.2,21.7l0,0.2c0.1,0.9-0.5,1.6-1.4,1.7l-1.9,0.2c-0.9,0.1-1.6-0.5-1.7-1.4l0-0.2L50.2,21.7z M7.8,31.5c0-0.2-0.1-0.3-0.1-0.5
			c0-1,0.8-1.9,1.9-1.9h29.1l0.4,2.4H7.8z M27,26.7l1.5-1.7l2.1,1.7H27z M25.1,20.5c1.6-1.8,4.3-2,6.1-0.5l7,5.7c0,0,0,0,0,0l0.2,1
			h-4c-0.1-0.1-0.1-0.1-0.2-0.2l-4.9-4c-0.5-0.4-1.3-0.4-1.7,0.1l-3.6,4c0,0-0.1,0.1-0.1,0.1h-4.3L25.1,20.5z M50.1,49.9L48.9,52
			c-0.1,0.1-0.2,0.2-0.3,0.2L46.7,52c-0.2,0-0.2-0.1-0.3-0.2c0-0.1-0.1-0.2,0-0.3l1.6-2.8c0.2-0.3,0.4-0.5,0.7-0.6
			c0.1,0,0.2,0,0.3,0c0.2,0,0.4,0.1,0.6,0.2C50.3,48.5,50.5,49.3,50.1,49.9z M59.2,28.5c-0.6-0.2-1.3,0.1-1.5,0.7l-6.3,17.3
			c-0.2-0.1-0.3-0.3-0.5-0.4c-0.5-0.3-1.1-0.5-1.7-0.5l6.3-17.3c0.2-0.6-0.1-1.3-0.7-1.5c-0.6-0.2-1.3,0.1-1.5,0.7l-1.4,3.9H41.5
			l-1.1-6.6c0-0.1,0-0.3,0.1-0.3c0-0.1,0.1-0.1,0.3-0.2l2.5-0.2c0.7,1.2,2,2,3.4,2c0.2,0,2.4-0.3,2.4-0.3c1.5-0.2,2.7-1.2,3.2-2.5
			l3.2-0.3c1.4-0.1,2.7,0.1,3.9,0.6c0.4,0.9,0.9,1.7,1.6,2.4c0.4,0.4,0.9,0.8,1.4,1.1c-0.5,0.7-0.7,1.5-0.7,2.4
			c0,0.6,0.1,1.2,0.3,1.7h-2.7l0.5-1.5C60.1,29.4,59.8,28.7,59.2,28.5z M75.4,45.7c0,0.8-0.6,1.4-1.4,1.4s-1.4-0.6-1.4-1.4v-2h2.8
			V45.7z"/>
	</g>
</g>
</svg>
