<?xml version="1.0" encoding="utf-8"?>
<!-- Generator: Adobe Illustrator 22.1.0, SVG Export Plug-In . SVG Version: 6.00 Build 0)  -->
<svg version="1.1" xmlns="http://www.w3.org/2000/svg" xmlns:xlink="http://www.w3.org/1999/xlink" x="0px" y="0px"
	 viewBox="0 0 86 58.5" style="enable-background:new 0 0 86 58.5;" xml:space="preserve">
<style type="text/css">
	.st0{fill:#F93212;}
	.st1{fill:#FA5C43;}
	.st2{fill:#353740;}
	.st3{fill:#FFA42D;}
	.st4{fill:#FFBB62;}
	.st5{fill:#FFEA25;}
	.st6{fill:#FFF491;}
	.st7{fill:#95D93D;}
	.st8{fill:#B2E372;}
	.st9{fill:#1BCC33;}
	.st10{fill:#52D864;}
	.st11{fill:#FFFFFF;}
</style>
<g id="Layer_1">
</g>
<g id="Layer_2">
	<g>
		<g>
			<g>
				<path class="st11" d="M53.2,8.2c-1.2-0.5-2.5,0-3,1.2s0,2.5,1.2,3c7.5,3.3,12.5,10.7,12.5,19.1c0,11.5-9.3,20.8-20.8,20.8
					c-11.5,0-20.8-9.3-20.8-20.8c0-8.4,5-15.8,12.5-19.1c1.2-0.5,1.7-1.9,1.2-3c-0.5-1.2-1.9-1.7-3-1.2c-9.2,4-15.3,13.1-15.3,23.3
					C17.6,45.6,29,57,43,57c14,0,25.4-11.4,25.4-25.4C68.4,21.4,62.4,12.3,53.2,8.2z"/>
				<path class="st11" d="M43,26.9c1.3,0,2.3-1,2.3-2.3V3.8c0-1.3-1-2.3-2.3-2.3s-2.3,1-2.3,2.3v20.8C40.7,25.9,41.7,26.9,43,26.9z"
					/>
			</g>
		</g>
	</g>
</g>
</svg>
