<?xml version="1.0" encoding="utf-8"?>
<!-- Generator: Adobe Illustrator 22.1.0, SVG Export Plug-In . SVG Version: 6.00 Build 0)  -->
<svg version="1.1" xmlns="http://www.w3.org/2000/svg" xmlns:xlink="http://www.w3.org/1999/xlink" x="0px" y="0px"
	 viewBox="0 0 86 58.5" style="enable-background:new 0 0 86 58.5;" xml:space="preserve">
<style type="text/css">
	.st0{fill:#F93212;}
	.st1{fill:#FA5C43;}
	.st2{fill:#353740;}
	.st3{fill:#FFA42D;}
	.st4{fill:#FFBB62;}
	.st5{fill:#FFEA25;}
	.st6{fill:#FFF491;}
	.st7{fill:#95D93D;}
	.st8{fill:#B2E372;}
	.st9{fill:#1BCC33;}
	.st10{fill:#52D864;}
	.st11{fill:#FFFFFF;}
</style>
<g id="Layer_1">
</g>
<g id="Layer_2">
	<g>
		<path class="st11" d="M64.6,46.4c0.8-0.8,1.4-1.9,1.4-3.2v-1.7c0-2.4-1.9-4.4-4.2-4.4c-2.1,0-3.8,1.5-4.2,3.5h-2.8
			c-0.4-1-1.3-1.7-2.4-1.7c-1.1,0-2,0.7-2.4,1.7h-2.8c-0.3-1.7-1.7-3.1-3.3-3.4v-2c1.5-0.4,2.5-1.7,2.5-3.4h0.8
			c0.5,0,0.8-0.4,0.8-0.9v-2.6h1.7v-1.7h-1.7v0c0-1.7,0.8-3.3,2.1-4.5c2.4-2.2,3.8-5.3,3.8-8.6c0-3.1-1.2-6-3.4-8.2
			c-2.2-2.2-5.1-3.3-8.1-3.2C36.8,2.4,32.1,7.4,32,13.3c-0.1,3.3,1.3,6.5,3.8,8.7c1.3,1.2,2.1,2.9,2.2,4.6h-1.7v1.7h1.7V31
			c0,0.5,0.4,0.9,0.8,0.9h0.8c0,1.6,1.1,3,2.5,3.4v2c-1.7,0.3-3,1.7-3.3,3.4H36c-0.4-1-1.3-1.7-2.4-1.7c-1.1,0-2,0.7-2.4,1.7h-2.8
			c-0.4-2-2.1-3.5-4.2-3.5c-2.3,0-4.2,2-4.2,4.4v1.7c0,1.3,0.5,2.4,1.4,3.2c-2.8,1.2-4.8,4-4.8,7.3v1.7c0,0.5,0.4,0.9,0.8,0.9h13.6
			c0.5,0,0.8-0.4,0.8-0.9v-1.7c0-3.3-2-6.1-4.8-7.3c0.8-0.8,1.4-1.9,1.4-3.2v-0.9h2.7c0.4,1,1.3,1.7,2.4,1.7c1.1,0,2-0.7,2.4-1.7
			h2.7v0.9c0,1.3,0.5,2.4,1.4,3.2c-2.8,1.2-4.8,4-4.8,7.3v1.7c0,0.5,0.4,0.9,0.8,0.9h13.6c0.5,0,0.8-0.4,0.8-0.9v-1.7
			c0-3.3-2-6.1-4.8-7.3c0.8-0.8,1.4-1.9,1.4-3.2v-0.9H50c0.4,1,1.3,1.7,2.4,1.7c1.1,0,2-0.7,2.4-1.7h2.7v0.9c0,1.3,0.5,2.4,1.4,3.2
			c-2.8,1.2-4.8,4-4.8,7.3v1.7c0,0.5,0.4,0.9,0.8,0.9h13.6c0.5,0,0.8-0.4,0.8-0.9v-1.7C69.3,50.4,67.4,47.6,64.6,46.4z M30.3,53.7
			v0.9h-1.7v-1.7h-1.7v1.7h-5.1v-1.7h-1.7v1.7h-1.7v-0.9c0-3.4,2.7-6.1,5.9-6.1C27.6,47.6,30.3,50.3,30.3,53.7z M21.8,43.2v-1.7
			c0-1.4,1.1-2.6,2.5-2.6c1.4,0,2.5,1.2,2.5,2.6v1.7c0,1.4-1.1,2.6-2.5,2.6C22.9,45.8,21.8,44.7,21.8,43.2z M33.7,42.3
			c-0.5,0-0.8-0.4-0.8-0.9c0-0.5,0.4-0.9,0.8-0.9c0.5,0,0.8,0.4,0.8,0.9C34.5,42,34.1,42.3,33.7,42.3z M36.8,20.7
			c-2.1-1.9-3.2-4.6-3.2-7.4c0.1-5,4.1-9.2,9-9.4c2.6-0.1,5,0.8,6.9,2.7c1.9,1.8,2.9,4.3,2.9,6.9c0,2.8-1.2,5.4-3.2,7.3
			c-1.7,1.5-2.7,3.6-2.7,5.8v0h-6.8C39.5,24.4,38.6,22.3,36.8,20.7z M46.4,28.4v1.7h-6.8v-1.7H46.4z M41.3,31.9h3.4
			c0,1-0.8,1.7-1.7,1.7C42.1,33.6,41.3,32.8,41.3,31.9z M48.9,53.7v0.9h-1.7v-1.7h-1.7v1.7h-5.1v-1.7h-1.7v1.7h-1.7v-0.9
			c0-3.4,2.7-6.1,5.9-6.1C46.3,47.6,48.9,50.3,48.9,53.7z M40.5,43.2v-1.7c0-1.4,1.1-2.6,2.5-2.6c1.4,0,2.5,1.2,2.5,2.6v1.7
			c0,1.4-1.1,2.6-2.5,2.6C41.6,45.8,40.5,44.7,40.5,43.2z M52.3,42.3c-0.5,0-0.8-0.4-0.8-0.9c0-0.5,0.4-0.9,0.8-0.9
			c0.5,0,0.8,0.4,0.8,0.9C53.2,42,52.8,42.3,52.3,42.3z M59.1,43.2v-1.7c0-1.4,1.1-2.6,2.5-2.6c1.4,0,2.5,1.2,2.5,2.6v1.7
			c0,1.4-1.1,2.6-2.5,2.6C60.3,45.8,59.1,44.7,59.1,43.2z M67.6,54.6h-1.7v-1.7h-1.7v1.7h-5.1v-1.7h-1.7v1.7h-1.7v-0.9
			c0-3.4,2.7-6.1,5.9-6.1c3.3,0,5.9,2.7,5.9,6.1V54.6z"/>
		<path class="st11" d="M41.3,23.1h3.4v1.7h-3.4V23.1z"/>
		<path class="st11" d="M42.2,17.8v1.8h1.7v-1.8c0.5-0.1,1-0.3,1.5-0.6l1.3,1.3l1.2-1.2l-1.3-1.3c0.3-0.5,0.5-1,0.6-1.5h1.8v-1.7
			h-1.8c-0.1-0.6-0.3-1.1-0.6-1.5l1.3-1.3l-1.2-1.2l-1.3,1.3c-0.4-0.3-0.9-0.5-1.5-0.6V7.4h-1.7v1.8c-0.5,0.1-1,0.3-1.5,0.6
			l-1.3-1.3l-1.2,1.2l1.3,1.3c-0.3,0.5-0.5,1-0.6,1.5h-1.8v1.7h1.8c0.1,0.6,0.3,1.1,0.6,1.5l-1.3,1.3l1.2,1.2l1.3-1.3
			C41.1,17.5,41.6,17.7,42.2,17.8z M43,10.9c1.4,0,2.5,1.2,2.5,2.6s-1.1,2.6-2.5,2.6c-1.4,0-2.5-1.2-2.5-2.6S41.6,10.9,43,10.9z"/>
	</g>
</g>
</svg>
